:version 1.10
:name ASF
:units
  mass 1
  length 1
  angle deg
:documentation
  ASF file generated by Kaydara
:root
  axis xyz
  order  tx ty tz rx ry rz
  position 0 0 0
  orientation 0 0 0
:bonedata
  begin
    id 1
    name RightUpLegDummy
    direction -1 2.30186e-007 8.31532e-007
    length 4.46685
    axis 0 0 0 xyz
  end
  begin
    id 2
    name RightUpLeg
    direction -2.30187e-007 -1 1.24343e-010
    length 16.4045
    axis -3.49089 -0.000906625 0.000286804 xyz
    dof rx ry rz
  end
  begin
    id 3
    name RightLeg
    direction -2.30181e-007 -1 -4.17157e-009
    length 17.5097
    axis 3.68512 0.0193738 -0.131023 xyz
    dof rx ry rz
  end
  begin
    id 4
    name RightFoot
    direction 8.31421e-007 -4.51202e-011 1
    length 6.49508
    axis 4.81691e-005 -0.120479 -0.188788 xyz
    dof rx ry rz
  end
  begin
    id 5
    name RightToes
    direction 0.00124746 -0.014064 0.9999
    length 3.85082
    axis 0.000481921 0.542163 -0.142578 xyz
    dof rx ry rz
  end
  begin
    id 6
    name SpineDummy
    direction 0.0717043 0.9409 -0.331007
    length 10.0032
    axis 0 0 0 xyz
  end
  begin
    id 7
    name Spine
    direction 2.30186e-007 1 4.58806e-011
    length 9.84055
    axis -0.001389 0.000121418 2.40972e-006 xyz
    dof rx ry rz
  end
  begin
    id 8
    name Spine1
    direction 0 0 0
    length 0
    axis -0.001389 0.000121451 1.30017e-006 xyz
    dof rx ry rz
  end
  begin
    id 9
    name HEadDummy
    direction -0.00347485 0.950688 -0.310128
    length 8.00997
    axis -0.001389 0.000121451 1.30017e-006 xyz
  end
  begin
    id 10
    name HEad
    direction -0.0222688 0.980941 0.193023
    length 5.12695
    axis -0.001389 0.000121451 1.30017e-006 xyz
    dof rx ry rz
  end
  begin
    id 11
    name LeftShoulder1Dummy
    direction 0.988871 0.146793 -0.0242004
    length 3.5792
    axis -0.001389 0.000121451 1.30017e-006 xyz
  end
  begin
    id 12
    name LeftShoulder1
    direction 0.993832 0.108932 0.020779
    length 4.16823
    axis -0.001389 0.000121451 1.30017e-006 xyz
    dof rx ry rz
  end
  begin
    id 13
    name LeftArm
    direction 1 3.44807e-006 -8.31404e-007
    length 9.91437
    axis -23.1894 0.134784 0.967509 xyz
    dof rx ry rz
  end
  begin
    id 14
    name LeftForeArm
    direction 1 3.44842e-006 -8.31581e-007
    length 9.08575
    axis -9.91835 -0.06569 -0.177793 xyz
    dof rx ry rz
  end
  begin
    id 15
    name LeftHand
    direction 0.992938 -0.0411636 0.11126
    length 5.32135
    axis -0.00960232 -0.00340091 0.185173 xyz
    dof rx ry rz
  end
  begin
    id 16
    name RightShoulderDummy
    direction -0.988871 0.146793 -0.0241962
    length 3.5792
    axis -0.001389 0.000121451 1.30017e-006 xyz
  end
  begin
    id 17
    name RightShoulder
    direction -0.993832 0.108933 0.0207785
    length 4.16823
    axis 0.215806 0.000203643 -0.0068026 xyz
    dof rx ry rz
  end
  begin
    id 18
    name RightArm
    direction -1 3.90912e-006 8.31284e-007
    length 9.91437
    axis -23.2009 -0.134239 -0.964101 xyz
    dof rx ry rz
  end
  begin
    id 19
    name RightForeArm
    direction -1 3.90882e-006 8.31502e-007
    length 9.08575
    axis -9.92322 0.0658061 0.178867 xyz
    dof rx ry rz
  end
  begin
    id 20
    name RightHand
    direction -0.992843 -0.0414603 0.112003
    length 5.28593
    axis -0.00960638 0.00330671 -0.185228 xyz
    dof rx ry rz
  end
  begin
    id 21
    name LeftUpLegDummy
    direction 1 -2.30186e-007 -8.31532e-007
    length 4.46685
    axis 0 0 0 xyz
  end
  begin
    id 22
    name LeftUpLeg
    direction -2.30187e-007 -1 6.00931e-010
    length 16.4045
    axis -3.48766 0.00143442 -0.000524262 xyz
    dof rx ry rz
  end
  begin
    id 23
    name LeftLeg
    direction -2.30187e-007 -1 1.6669e-009
    length 17.5097
    axis 3.68178 -0.00654042 -0.000285133 xyz
    dof rx ry rz
  end
  begin
    id 24
    name LeftFoot
    direction 8.31532e-007 -4.54478e-011 1
    length 6.49508
    axis 1.87233e-006 4.66016e-005 -8.6538e-006 xyz
    dof rx ry rz
  end
  begin
    id 25
    name LeftToes
    direction 0.00818058 -0.00485161 0.999955
    length 3.85048
    axis 1.06247e-005 4.65869e-005 -8.65513e-006 xyz
    dof rx ry rz
  end
:hierarchy
  begin
    root RightUpLegDummy SpineDummy LeftUpLegDummy
    RightUpLegDummy RightUpLeg
    RightUpLeg RightLeg
    RightLeg RightFoot
    RightFoot RightToes
    SpineDummy Spine
    Spine Spine1
    Spine1 HEadDummy LeftShoulder1Dummy RightShoulderDummy
    HEadDummy HEad
    LeftShoulder1Dummy LeftShoulder1
    LeftShoulder1 LeftArm
    LeftArm LeftForeArm
    LeftForeArm LeftHand
    RightShoulderDummy RightShoulder
    RightShoulder RightArm
    RightArm RightForeArm
    RightForeArm RightHand
    LeftUpLegDummy LeftUpLeg
    LeftUpLeg LeftLeg
    LeftLeg LeftFoot
    LeftFoot LeftToes
  end

:SAMPLES-PER-SECOND 30
:FULLY-SPECIFIED
:DEGREES
22
root  38.1666 31.815 35.5866 -176.738 -38.0325 -176.809
RightUpLeg  3.46259 -2.25786 -11.6566
RightLeg  25.6947 -14.2163 -5.66858
RightFoot  1.04127 0.00482425 -0.153236
RightToes  -40.1129 -0.219385 -0.315759
Spine  6.80526 1.34044 0.22011
Spine1  11.2824 2.8699 0.525124
HEad  2.63607 4.94523 6.08431
LeftShoulder1  0 -2.42657e-020 -4.95415e-022
LeftArm  10.5533 -26.8328 -51.7028
LeftForeArm  -179.829 -76.2948 -133.075
LeftHand  -2.90426 -5.17186 58.3055
RightShoulder  0 2.42657e-020 1.07489e-018
RightArm  2.20143 21.0176 55.5444
RightForeArm  -169.473 79.5455 107.344
RightHand  -1.57447 1.70769 -85.2002
LeftUpLeg  -32.1491 -1.36388 3.98918
LeftLeg  47.2187 -3.28357 -3.12201
LeftFoot  -8.65021 0.0500584 0.66186
LeftToes  -15.2469 3.33339e-006 -4.73431e-007
23
root  37.5514 32.2772 35.5365 -176.633 -38.8637 -176.581
RightUpLeg  3.87188 -2.07487 -11.2824
RightLeg  25.034 -15.8062 -6.0749
RightFoot  4.20357 0.0568487 -1.17119
RightToes  -31.8646 -0.156969 -0.264714
Spine  6.73324 1.3072 0.236145
Spine1  11.0794 2.72551 0.611636
HEad  1.07885 4.55842 6.44948
LeftShoulder1  0 -2.42657e-020 -4.95415e-022
LeftArm  4.45615 -34.0023 -51.6208
LeftForeArm  137.204 -79.9284 -88.0198
LeftHand  -2.73329 -5.20848 55.0479
RightShoulder  0 2.42657e-020 1.07489e-018
RightArm  -4.07272 28.7 57.5226
RightForeArm  135.182 76.7635 48.1819
RightHand  -1.35016 1.45493 -85.6099
LeftUpLeg  -29.9666 -2.05137 3.34651
LeftLeg  43.7271 -3.58121 -3.01113
LeftFoot  -7.6762 0.041242 0.614732
LeftToes  -13.6582 3.33339e-006 -4.73431e-007
24
root  37.1155 32.6666 35.5748 -176.68 -39.3866 -176.199
RightUpLeg  3.53779 -3.52669 -11.131
RightLeg  24.5592 -12.6284 -4.76569
RightFoot  6.27842 0.0980537 -1.41
RightToes  -34.2531 -0.174278 -0.280412
Spine  6.55429 1.22351 0.335196
Spine1  10.6776 2.46742 0.864384
HEad  0.470734 4.44011 5.87686
LeftShoulder1  0 -2.42657e-020 -4.95415e-022
LeftArm  -3.3385 -40.8648 -54.4176
LeftForeArm  85.3421 -72.2195 -33.4396
LeftHand  -2.95463 -6.52637 48.353
RightShoulder  0 2.42657e-020 1.07489e-018
RightArm  -10.0827 39.542 59.8194
RightForeArm  100.851 61.6106 18.8579
RightHand  -5.89237 7.77746 -73.9368
LeftUpLeg  -28.196 -2.21874 3.00506
LeftLeg  40.6147 -4.08968 -3.07417
LeftFoot  -6.50543 0.0328541 0.578081
LeftToes  -12.5611 3.33339e-006 -4.73431e-007
25
root  36.7878 32.9632 35.6279 -176.375 -39.5761 -176.043
RightUpLeg  2.3599 -5.30435 -10.968
RightLeg  24.7099 -7.98003 -3.05688
RightFoot  6.57259 0.0663483 -0.777827
RightToes  -37.6391 -0.199904 -0.301401
Spine  6.18385 1.61317 0.25746
Spine1  9.92428 3.75699 0.513244
HEad  2.41471 4.44092 5.39594
LeftShoulder1  0 -2.42657e-020 -4.95415e-022
LeftArm  -7.94939 -48.3198 -59.4887
LeftForeArm  65.5871 -57.1892 -15.8534
LeftHand  -2.327 -7.70962 33.2056
RightShoulder  0 2.42657e-020 1.07489e-018
RightArm  -14.4282 49.0599 63.6023
RightForeArm  73.8767 45.9154 10.4098
RightHand  -8.33726 16.9896 -51.6704
LeftUpLeg  -26.8989 -1.57746 2.60594
LeftLeg  37.8901 -4.96358 -3.37114
LeftFoot  -5.45549 0.0303543 0.637089
LeftToes  -11.9738 3.33339e-006 -4.73431e-007
26
root  36.4855 33.2105 35.6158 -175.521 -39.8423 -176.12
RightUpLeg  1.33414 -7.13461 -10.7065
RightLeg  23.9765 -6.30591 -2.32818
RightFoot  6.87875 0.0550855 -0.587896
RightToes  -39.1566 -0.211781 -0.310308
Spine  6.41529 1.95059 -0.00597351
Spine1  9.97301 4.24221 0.252538
HEad  3.84274 3.53446 6.26995
LeftShoulder1  0 -2.42657e-020 -4.95415e-022
LeftArm  -10.8391 -57.1489 -64.3651
LeftForeArm  56.825 -44.8425 -10.0675
LeftHand  -0.658143 -7.56193 9.57275
RightShoulder  0 2.42657e-020 1.07489e-018
RightArm  -21.4216 58.076 67.9146
RightForeArm  59.7166 36.6824 7.5009
RightHand  -3.48084 19.5658 -19.625
LeftUpLeg  -25.9639 -1.2225 2.15995
LeftLeg  35.1818 -5.66256 -3.46465
LeftFoot  -4.66716 0.02417 0.593096
LeftToes  -10.9127 3.33339e-006 -4.73431e-007
